<?xml version="1.0" encoding="utf-8"?>
<!-- Generator: Adobe Illustrator 27.5.0, SVG Export Plug-In . SVG Version: 6.00 Build 0)  -->
<svg version="1.1" xmlns="http://www.w3.org/2000/svg" xmlns:xlink="http://www.w3.org/1999/xlink" x="0px" y="0px"
	 viewBox="0 0 2200 1466" style="enable-background:new 0 0 2200 1466;" xml:space="preserve">
<g id="background">
	<rect y="0" style="fill:#FFFFFF;" width="2200" height="1466"/>
</g>
<g id="Objects">
	<g>
		<g>
			<path d="M418.095,382.2c-106.422,0-140.802,32.233-172.397,93.422c-21.961,42.531-25.217,92.981-19.138,140.46
				c13.34,104.204,61.562,148.962,95.131,268.052c12.724,45.138,3.812,84.305,28.107,124.418
				c25.576,42.227,74.331,63.941,135.874,46.757c90.686-25.321,86.941-128.306,62.584-169.438s-56.37-68.374-77.408-110.78
				c-21.243-42.818-23.412-81.861-5.505-125.688c17.431-42.661,83.959-113.762,83.959-164.327
				C549.302,420.961,484.609,382.2,418.095,382.2"/>
		</g>
		<path d="M235.373,377.934c6.413,19.366-0.072,38.931-14.486,43.702c-14.414,4.772-31.291-7.063-37.704-26.429
			c-6.413-19.375,0.081-38.94,14.486-43.712C212.083,346.725,228.969,358.568,235.373,377.934z"/>
		<path d="M376.899,297.637c3.599,25.482-8.858,48.312-27.818,50.991c-18.96,2.67-37.244-15.821-40.834-41.303
			c-3.59-25.482,8.858-48.312,27.818-50.982C355.025,253.664,373.309,272.155,376.899,297.637z"/>
		<path d="M297.702,324.995c4.916,22.677-4.772,44.036-21.648,47.698c-16.886,3.662-34.547-11.762-39.472-34.448
			c-4.916-22.677,4.781-44.036,21.648-47.689C275.116,286.885,292.786,302.31,297.702,324.995z"/>
		<path d="M469.229,286.055c1.569,27.881-13.972,51.433-34.718,52.605c-20.755,1.164-38.841-20.494-40.41-48.384
			c-1.56-27.881,13.981-51.433,34.727-52.596C449.574,236.508,467.668,258.174,469.229,286.055z"/>
		<path d="M598.451,311.239c-11.176,39.806-44.244,65.324-73.857,57.016c-29.622-8.326-44.55-47.329-33.383-87.134
			c11.185-39.797,44.253-65.315,73.857-56.998C594.69,232.44,609.627,271.443,598.451,311.239z"/>
		<g>
			<path d="M878.677,564.431c106.422,0,140.802,32.233,172.397,93.422c21.961,42.531,25.217,92.981,19.138,140.46
				c-13.34,104.204-61.562,148.963-95.131,268.052c-12.724,45.138-3.812,84.305-28.107,124.418
				c-25.576,42.228-74.331,63.941-135.874,46.757c-90.686-25.321-86.941-128.306-62.584-169.438
				c24.357-41.133,56.37-68.374,77.408-110.78c21.243-42.818,23.412-81.861,5.505-125.688
				c-17.431-42.661-83.959-113.762-83.959-164.327C747.47,603.192,812.163,564.431,878.677,564.431"/>
		</g>
		<path d="M1061.398,560.165c-6.413,19.366,0.072,38.931,14.486,43.703s31.291-7.063,37.704-26.429
			c6.413-19.375-0.081-38.94-14.486-43.711C1084.688,528.956,1067.803,540.799,1061.398,560.165z"/>
		<path d="M919.873,479.868c-3.599,25.482,8.858,48.312,27.818,50.991c18.96,2.67,37.244-15.821,40.834-41.303
			c3.59-25.482-8.858-48.312-27.818-50.982C941.746,435.895,923.463,454.386,919.873,479.868z"/>
		<path d="M999.069,507.226c-4.916,22.677,4.772,44.036,21.648,47.698c16.886,3.662,34.547-11.762,39.472-34.448
			c4.916-22.677-4.781-44.036-21.648-47.689C1021.656,469.116,1003.985,484.54,999.069,507.226z"/>
		<path d="M827.543,468.286c-1.57,27.881,13.972,51.433,34.719,52.605c20.755,1.164,38.841-20.494,40.41-48.384
			c1.56-27.881-13.981-51.433-34.727-52.596C847.198,418.739,829.103,440.405,827.543,468.286z"/>
		<path d="M698.321,493.47c11.176,39.806,44.244,65.324,73.857,57.016c29.622-8.326,44.55-47.329,33.383-87.134
			c-11.185-39.797-44.253-65.315-73.857-56.998C702.082,414.671,687.145,453.674,698.321,493.47z"/>
	</g>
	<g>
		<g>
			<path d="M1547.364,955.372l-177.552,42.892c-55.208-83.756-103.542-213.299-114.634-311.197
				c-5.21-45.973-4.552-93.223,10.342-137.299c11.046-32.666,32.682-67.013,61.385-84.584c39.85-24.391,91.621-19.685,124.968,4.056
				c33.348,23.733,53.156,60.495,67.144,97.48C1565.88,690.659,1514.558,792.969,1547.364,955.372z"/>
		</g>
		<g>
			<path d="M1547.364,1238.788c-65.635,18.307-122.336-19.313-139.343-77.958c-16.999-58.645-13.864-123.126-13.864-123.126
				l161.435-39.44c0,0,34.052,48.357,49.479,104.943C1620.507,1159.8,1612.96,1220.496,1547.364,1238.788z"/>
		</g>
		<g>
			<path d="M1724.148,728.911l177.552,42.892c55.208-83.756,103.542-213.299,114.634-311.197
				c5.21-45.973,4.552-93.223-10.342-137.299c-11.046-32.666-32.682-67.012-61.385-84.584
				c-39.85-24.391-91.621-19.685-124.968,4.056c-33.348,23.733-53.156,60.495-67.144,97.48
				C1705.632,464.197,1756.954,566.508,1724.148,728.911z"/>
		</g>
		<g>
			<path d="M1724.148,1012.326c65.635,18.307,122.336-19.313,139.343-77.958c16.999-58.645,13.864-123.126,13.864-123.126
				l-161.435-39.44c0,0-34.052,48.357-49.479,104.943C1651.005,933.339,1658.552,994.035,1724.148,1012.326z"/>
		</g>
	</g>
</g>
</svg>
